<svg width="185" height="47" viewBox="0 0 185 47" fill="none" xmlns="http://www.w3.org/2000/svg">
<path d="M9.64844 31.3867C20.7664 48.9792 38.4787 47.9274 45.9452 45.2024C28.8759 44.3522 22.4831 32.4223 21.4204 26.5635C16.8424 26.1057 11.6649 29.5883 9.64844 31.3867Z" fill="url(#paint0_linear_61_1399)"/>
<path d="M31.5907 11.5136C10.7917 12.2248 2.7543 28.0437 1.33548 35.8642C10.6897 21.561 24.2151 22.0683 29.8085 24.1099C32.5156 20.3898 32.1246 14.1623 31.5907 11.5136Z" fill="url(#paint1_linear_61_1399)"/>
<path d="M38.6176 39.4985C47.9335 20.8889 37.8798 6.26846 31.6884 1.28444C39.7814 16.3372 32.8715 27.9753 28.4049 31.9128C30.3787 36.0686 36.0358 38.7015 38.6176 39.4985Z" fill="url(#paint2_linear_61_1399)"/>
<path d="M69.4655 12.6431L74.2298 27.6194H74.4127L79.1867 12.6431H83.8066L77.0114 32.3549H71.6407L64.8359 12.6431H69.4655Z" fill="url(#paint3_linear_61_1399)"/>
<path d="M85.4284 16.0792V12.6431H101.617V16.0792H95.5827V32.3549H91.4632V16.0792H85.4284Z" fill="url(#paint4_linear_61_1399)"/>
<path d="M108.451 12.6431V32.3549H104.284V12.6431H108.451Z" fill="url(#paint5_linear_61_1399)"/>
<path d="M128.367 12.6431V32.3549H124.768L116.192 19.9484H116.048V32.3549H111.88V12.6431H115.537L124.046 25.0399H124.219V12.6431H128.367Z" fill="url(#paint6_linear_61_1399)"/>
<path d="M138.798 32.3549H131.811V12.6431H138.856C140.839 12.6431 142.546 13.0377 143.977 13.8269C145.408 14.6098 146.508 15.7359 147.278 17.2053C148.054 18.6747 148.443 20.4328 148.443 22.4797C148.443 24.533 148.054 26.2976 147.278 27.7734C146.508 29.2492 145.401 30.3818 143.957 31.171C142.52 31.9602 140.8 32.3549 138.798 32.3549ZM135.978 28.784H138.625C139.857 28.784 140.893 28.5659 141.734 28.1295C142.581 27.6868 143.216 27.0034 143.64 26.0794C144.07 25.149 144.285 23.9491 144.285 22.4797C144.285 21.0231 144.07 19.8329 143.64 18.9089C143.216 17.9849 142.584 17.3047 141.744 16.8684C140.903 16.4321 139.867 16.2139 138.635 16.2139H135.978V28.784Z" fill="url(#paint7_linear_61_1399)"/>
<path d="M151.53 32.3549V12.6431H164.812V16.0792H155.697V20.7761H164.129V24.2122H155.697V28.9188H164.851V32.3549H151.53Z" fill="url(#paint8_linear_61_1399)"/>
<path d="M172.033 12.6431L176.008 19.3612H176.162L180.157 12.6431H184.863L178.848 22.499L184.998 32.3549H180.205L176.162 25.6271H176.008L171.966 32.3549H167.192L173.361 22.499L167.307 12.6431H172.033Z" fill="url(#paint9_linear_61_1399)"/>
<path d="M65.4688 45.0049V39.118H67.4579C67.9178 39.118 68.2953 39.1966 68.5904 39.3538C68.8855 39.509 69.104 39.7226 69.2458 39.9948C69.3876 40.2669 69.4585 40.5763 69.4585 40.9232C69.4585 41.27 69.3876 41.5776 69.2458 41.8459C69.104 42.1142 68.8865 42.325 68.5933 42.4783C68.3001 42.6297 67.9254 42.7054 67.4694 42.7054H65.8597V42.0615H67.4464C67.7606 42.0615 68.0136 42.0155 68.2052 41.9235C68.3988 41.8315 68.5387 41.7012 68.6249 41.5326C68.713 41.362 68.7571 41.1589 68.7571 40.9232C68.7571 40.6875 68.713 40.4815 68.6249 40.3052C68.5367 40.1289 68.3959 39.9928 68.2023 39.897C68.0088 39.7993 67.753 39.7504 67.4349 39.7504H66.1816V45.0049H65.4688ZM68.2397 42.3604L69.6884 45.0049H68.8606L67.4349 42.3604H68.2397Z" fill="url(#paint10_linear_61_1399)"/>
<path d="M72.578 45.0049V40.5898H73.2563V45.0049H72.578ZM72.9229 39.8539C72.7907 39.8539 72.6767 39.8089 72.5808 39.7188C72.4869 39.6287 72.44 39.5205 72.44 39.394C72.44 39.2675 72.4869 39.1592 72.5808 39.0692C72.6767 38.9791 72.7907 38.9341 72.9229 38.9341C73.0551 38.9341 73.1682 38.9791 73.2621 39.0692C73.3579 39.1592 73.4058 39.2675 73.4058 39.394C73.4058 39.5205 73.3579 39.6287 73.2621 39.7188C73.1682 39.8089 73.0551 39.8539 72.9229 39.8539Z" fill="url(#paint11_linear_61_1399)"/>
<path d="M79.6498 41.5786L79.0404 41.751C79.0021 41.6495 78.9456 41.5508 78.8709 41.455C78.798 41.3572 78.6984 41.2768 78.5719 41.2135C78.4454 41.1503 78.2835 41.1187 78.0861 41.1187C77.8159 41.1187 77.5908 41.1809 77.4106 41.3055C77.2324 41.4281 77.1433 41.5843 77.1433 41.774C77.1433 41.9427 77.2046 42.0759 77.3273 42.1736C77.4499 42.2713 77.6415 42.3528 77.9022 42.4179L78.5575 42.5789C78.9523 42.6747 79.2464 42.8213 79.44 43.0187C79.6335 43.2141 79.7303 43.4661 79.7303 43.7746C79.7303 44.0276 79.6575 44.2537 79.5119 44.453C79.3681 44.6523 79.1669 44.8094 78.9082 44.9244C78.6495 45.0394 78.3487 45.0969 78.0056 45.0969C77.5553 45.0969 77.1826 44.9992 76.8875 44.8037C76.5924 44.6082 76.4055 44.3227 76.327 43.9471L76.9708 43.7861C77.0322 44.0238 77.1481 44.202 77.3187 44.3208C77.4911 44.4396 77.7163 44.499 77.9941 44.499C78.3103 44.499 78.5614 44.4319 78.7473 44.2978C78.935 44.1617 79.0289 43.9989 79.0289 43.8091C79.0289 43.6558 78.9753 43.5274 78.868 43.424C78.7607 43.3186 78.5959 43.24 78.3736 43.1883L77.6377 43.0158C77.2334 42.92 76.9364 42.7715 76.7466 42.5703C76.5588 42.3671 76.4649 42.1132 76.4649 41.8085C76.4649 41.5594 76.5349 41.339 76.6748 41.1474C76.8166 40.9558 77.0092 40.8053 77.2525 40.6961C77.4978 40.5869 77.7757 40.5323 78.0861 40.5323C78.523 40.5323 78.8661 40.6281 79.1152 40.8197C79.3662 41.0113 79.5444 41.2643 79.6498 41.5786Z" fill="url(#paint12_linear_61_1399)"/>
<path d="M84.6262 45.0969C84.2008 45.0969 83.8338 45.003 83.5253 44.8152C83.2187 44.6255 82.982 44.361 82.8153 44.0219C82.6505 43.6807 82.5681 43.2841 82.5681 42.8318C82.5681 42.3796 82.6505 41.981 82.8153 41.6361C82.982 41.2892 83.2139 41.019 83.5109 40.8255C83.8099 40.63 84.1586 40.5323 84.5572 40.5323C84.7872 40.5323 85.0143 40.5706 85.2385 40.6473C85.4627 40.7239 85.6668 40.8485 85.8507 41.0209C86.0347 41.1915 86.1813 41.4176 86.2905 41.6993C86.3997 41.981 86.4544 42.3278 86.4544 42.7398V43.0273H83.051V42.4409H85.7645C85.7645 42.1918 85.7147 41.9695 85.615 41.774C85.5173 41.5786 85.3774 41.4243 85.1954 41.3112C85.0152 41.1982 84.8025 41.1417 84.5572 41.1417C84.287 41.1417 84.0532 41.2087 83.8559 41.3429C83.6604 41.4751 83.51 41.6476 83.4046 41.8603C83.2992 42.073 83.2465 42.301 83.2465 42.5444V42.9353C83.2465 43.2687 83.304 43.5514 83.4189 43.7833C83.5358 44.0132 83.6978 44.1886 83.9047 44.3093C84.1117 44.4281 84.3522 44.4875 84.6262 44.4875C84.8044 44.4875 84.9654 44.4626 85.1091 44.4128C85.2548 44.361 85.3803 44.2844 85.4857 44.1828C85.5911 44.0793 85.6725 43.9509 85.73 43.7976L86.3854 43.9816C86.3164 44.2039 86.2005 44.3994 86.0376 44.568C85.8747 44.7347 85.6735 44.865 85.4339 44.9589C85.1944 45.0509 84.9252 45.0969 84.6262 45.0969Z" fill="url(#paint13_linear_61_1399)"/>
<path d="M94.9713 45.0049L93.3617 39.118H94.086L95.3163 43.9126H95.3738L96.627 39.118H97.4319L98.6851 43.9126H98.7426L99.9729 39.118H100.697L99.0876 45.0049H98.3517L97.0524 40.3138H97.0065L95.7072 45.0049H94.9713Z" fill="url(#paint14_linear_61_1399)"/>
<path d="M103.517 45.0049V40.5898H104.195V45.0049H103.517ZM103.862 39.8539C103.73 39.8539 103.616 39.8089 103.52 39.7188C103.426 39.6287 103.379 39.5205 103.379 39.394C103.379 39.2675 103.426 39.1592 103.52 39.0692C103.616 38.9791 103.73 38.9341 103.862 38.9341C103.994 38.9341 104.107 38.9791 104.201 39.0692C104.297 39.1592 104.345 39.2675 104.345 39.394C104.345 39.5205 104.297 39.6287 104.201 39.7188C104.107 39.8089 103.994 39.8539 103.862 39.8539Z" fill="url(#paint15_linear_61_1399)"/>
<path d="M109.382 40.5898V41.1647H107.094V40.5898H109.382ZM107.76 39.532H108.439V43.7402C108.439 43.9318 108.467 44.0755 108.522 44.1713C108.58 44.2652 108.653 44.3285 108.741 44.361C108.831 44.3917 108.926 44.407 109.025 44.407C109.1 44.407 109.161 44.4032 109.209 44.3955C109.257 44.3859 109.295 44.3783 109.324 44.3725L109.462 44.9819C109.416 44.9992 109.352 45.0164 109.27 45.0337C109.187 45.0528 109.083 45.0624 108.956 45.0624C108.765 45.0624 108.577 45.0212 108.393 44.9388C108.211 44.8564 108.059 44.7309 107.939 44.5622C107.82 44.3936 107.76 44.1809 107.76 43.9241V39.532Z" fill="url(#paint16_linear_61_1399)"/>
<path d="M113.199 42.3489V45.0049H112.521V39.118H113.199V41.2796H113.256C113.36 41.0516 113.515 40.8705 113.722 40.7364C113.931 40.6003 114.209 40.5323 114.556 40.5323C114.857 40.5323 115.12 40.5926 115.346 40.7134C115.572 40.8322 115.748 41.0152 115.872 41.2624C115.999 41.5077 116.062 41.82 116.062 42.1995V45.0049H115.384V42.2454C115.384 41.8948 115.292 41.6236 115.11 41.432C114.93 41.2384 114.68 41.1417 114.36 41.1417C114.138 41.1417 113.939 41.1886 113.762 41.2825C113.588 41.3764 113.45 41.5134 113.348 41.6935C113.249 41.8737 113.199 42.0921 113.199 42.3489Z" fill="url(#paint17_linear_61_1399)"/>
<path d="M123.397 39.7504V39.118H127.812V39.7504H125.961V45.0049H125.248V39.7504H123.397Z" fill="url(#paint18_linear_61_1399)"/>
<path d="M131.522 42.3489V45.0049H130.844V39.118H131.522V41.2796H131.58C131.683 41.0516 131.838 40.8705 132.045 40.7364C132.254 40.6003 132.532 40.5323 132.879 40.5323C133.18 40.5323 133.443 40.5926 133.669 40.7134C133.895 40.8322 134.071 41.0152 134.195 41.2624C134.322 41.5077 134.385 41.82 134.385 42.1995V45.0049H133.707V42.2454C133.707 41.8948 133.616 41.6236 133.434 41.432C133.253 41.2384 133.003 41.1417 132.683 41.1417C132.461 41.1417 132.262 41.1886 132.085 41.2825C131.911 41.3764 131.773 41.5134 131.672 41.6935C131.572 41.8737 131.522 42.0921 131.522 42.3489Z" fill="url(#paint19_linear_61_1399)"/>
<path d="M139.501 45.0969C139.075 45.0969 138.708 45.003 138.4 44.8152C138.093 44.6255 137.857 44.361 137.69 44.0219C137.525 43.6807 137.443 43.2841 137.443 42.8318C137.443 42.3796 137.525 41.981 137.69 41.6361C137.857 41.2892 138.089 41.019 138.386 40.8255C138.684 40.63 139.033 40.5323 139.432 40.5323C139.662 40.5323 139.889 40.5706 140.113 40.6473C140.337 40.7239 140.541 40.8485 140.725 41.0209C140.909 41.1915 141.056 41.4176 141.165 41.6993C141.274 41.981 141.329 42.3278 141.329 42.7398V43.0273H137.926V42.4409H140.639C140.639 42.1918 140.589 41.9695 140.49 41.774C140.392 41.5786 140.252 41.4243 140.07 41.3112C139.89 41.1982 139.677 41.1417 139.432 41.1417C139.162 41.1417 138.928 41.2087 138.73 41.3429C138.535 41.4751 138.385 41.6476 138.279 41.8603C138.174 42.073 138.121 42.301 138.121 42.5444V42.9353C138.121 43.2687 138.179 43.5514 138.294 43.7833C138.41 44.0132 138.572 44.1886 138.779 44.3093C138.986 44.4281 139.227 44.4875 139.501 44.4875C139.679 44.4875 139.84 44.4626 139.984 44.4128C140.129 44.361 140.255 44.2844 140.36 44.1828C140.466 44.0793 140.547 43.9509 140.605 43.7976L141.26 43.9816C141.191 44.2039 141.075 44.3994 140.912 44.568C140.749 44.7347 140.548 44.865 140.309 44.9589C140.069 45.0509 139.8 45.0969 139.501 45.0969Z" fill="url(#paint20_linear_61_1399)"/>
<path d="M148.777 45.0049V39.118H149.49V44.3725H152.226V45.0049H148.777Z" fill="url(#paint21_linear_61_1399)"/>
<path d="M157.113 45.0969C156.687 45.0969 156.32 45.003 156.012 44.8152C155.705 44.6255 155.468 44.361 155.302 44.0219C155.137 43.6807 155.054 43.2841 155.054 42.8318C155.054 42.3796 155.137 41.981 155.302 41.6361C155.468 41.2892 155.7 41.019 155.997 40.8255C156.296 40.63 156.645 40.5323 157.044 40.5323C157.274 40.5323 157.501 40.5706 157.725 40.6473C157.949 40.7239 158.153 40.8485 158.337 41.0209C158.521 41.1915 158.668 41.4176 158.777 41.6993C158.886 41.981 158.941 42.3278 158.941 42.7398V43.0273H155.537V42.4409H158.251C158.251 42.1918 158.201 41.9695 158.101 41.774C158.004 41.5786 157.864 41.4243 157.682 41.3112C157.502 41.1982 157.289 41.1417 157.044 41.1417C156.773 41.1417 156.54 41.2087 156.342 41.3429C156.147 41.4751 155.996 41.6476 155.891 41.8603C155.786 42.073 155.733 42.301 155.733 42.5444V42.9353C155.733 43.2687 155.79 43.5514 155.905 43.7833C156.022 44.0132 156.184 44.1886 156.391 44.3093C156.598 44.4281 156.839 44.4875 157.113 44.4875C157.291 44.4875 157.452 44.4626 157.595 44.4128C157.741 44.361 157.867 44.2844 157.972 44.1828C158.077 44.0793 158.159 43.9509 158.216 43.7976L158.872 43.9816C158.803 44.2039 158.687 44.3994 158.524 44.568C158.361 44.7347 158.16 44.865 157.92 44.9589C157.681 45.0509 157.411 45.0969 157.113 45.0969Z" fill="url(#paint22_linear_61_1399)"/>
<path d="M163.295 45.1084C163.016 45.1084 162.762 45.0557 162.534 44.9503C162.306 44.843 162.125 44.6887 161.99 44.4875C161.856 44.2844 161.789 44.0391 161.789 43.7517C161.789 43.4987 161.839 43.2937 161.939 43.1365C162.038 42.9775 162.172 42.8529 162.338 42.7628C162.505 42.6728 162.689 42.6057 162.89 42.5616C163.093 42.5156 163.297 42.4792 163.502 42.4524C163.771 42.4179 163.988 42.392 164.155 42.3748C164.324 42.3556 164.446 42.324 164.523 42.2799C164.601 42.2359 164.641 42.1592 164.641 42.05V42.027C164.641 41.7434 164.563 41.523 164.408 41.3659C164.255 41.2087 164.022 41.1302 163.709 41.1302C163.386 41.1302 163.132 41.2011 162.948 41.3429C162.764 41.4847 162.634 41.6361 162.56 41.797L161.916 41.5671C162.031 41.2988 162.184 41.0899 162.376 40.9404C162.569 40.7891 162.78 40.6837 163.008 40.6243C163.238 40.5629 163.464 40.5323 163.686 40.5323C163.828 40.5323 163.991 40.5495 164.175 40.584C164.361 40.6166 164.54 40.6846 164.713 40.7881C164.887 40.8916 165.032 41.0478 165.147 41.2566C165.262 41.4655 165.319 41.7453 165.319 42.096V45.0049H164.641V44.407H164.606C164.56 44.5028 164.484 44.6054 164.376 44.7146C164.269 44.8238 164.126 44.9168 163.948 44.9934C163.77 45.0701 163.552 45.1084 163.295 45.1084ZM163.399 44.499C163.667 44.499 163.893 44.4463 164.077 44.3409C164.263 44.2355 164.403 44.0995 164.497 43.9327C164.593 43.766 164.641 43.5907 164.641 43.4067V42.7858C164.612 42.8203 164.549 42.852 164.451 42.8807C164.355 42.9075 164.244 42.9315 164.118 42.9526C163.993 42.9717 163.871 42.989 163.753 43.0043C163.636 43.0177 163.541 43.0292 163.468 43.0388C163.292 43.0618 163.127 43.0992 162.974 43.1509C162.822 43.2007 162.7 43.2764 162.606 43.378C162.514 43.4776 162.468 43.6137 162.468 43.7861C162.468 44.0219 162.555 44.2001 162.729 44.3208C162.906 44.4396 163.129 44.499 163.399 44.499Z" fill="url(#paint23_linear_61_1399)"/>
<path d="M170.248 45.0969C169.88 45.0969 169.555 45.004 169.274 44.8181C168.992 44.6303 168.772 44.3658 168.612 44.0247C168.453 43.6817 168.374 43.2764 168.374 42.8088C168.374 42.3451 168.453 41.9427 168.612 41.6016C168.772 41.2605 168.993 40.997 169.276 40.8111C169.56 40.6252 169.888 40.5323 170.26 40.5323C170.547 40.5323 170.774 40.5802 170.941 40.676C171.109 40.7699 171.238 40.8772 171.326 40.9979C171.416 41.1167 171.486 41.2145 171.536 41.2911H171.593V39.118H172.272V45.0049H171.616V44.3265H171.536C171.486 44.407 171.415 44.5086 171.323 44.6312C171.231 44.752 171.1 44.8602 170.929 44.956C170.759 45.0499 170.532 45.0969 170.248 45.0969ZM170.34 44.4875C170.612 44.4875 170.842 44.4166 171.03 44.2748C171.218 44.1311 171.36 43.9327 171.458 43.6798C171.556 43.4249 171.605 43.1308 171.605 42.7973C171.605 42.4677 171.557 42.1793 171.461 41.9321C171.365 41.683 171.223 41.4895 171.036 41.3515C170.848 41.2116 170.616 41.1417 170.34 41.1417C170.053 41.1417 169.813 41.2154 169.621 41.363C169.432 41.5086 169.289 41.707 169.193 41.958C169.099 42.2071 169.052 42.4869 169.052 42.7973C169.052 43.1116 169.1 43.3971 169.196 43.6539C169.294 43.9088 169.437 44.1119 169.627 44.2633C169.819 44.4128 170.056 44.4875 170.34 44.4875Z" fill="url(#paint24_linear_61_1399)"/>
<path d="M177.483 45.0969C177.058 45.0969 176.691 45.003 176.382 44.8152C176.076 44.6255 175.839 44.361 175.672 44.0219C175.507 43.6807 175.425 43.2841 175.425 42.8318C175.425 42.3796 175.507 41.981 175.672 41.6361C175.839 41.2892 176.071 41.019 176.368 40.8255C176.667 40.63 177.015 40.5323 177.414 40.5323C177.644 40.5323 177.871 40.5706 178.095 40.6473C178.319 40.7239 178.524 40.8485 178.708 41.0209C178.892 41.1915 179.038 41.4176 179.147 41.6993C179.257 41.981 179.311 42.3278 179.311 42.7398V43.0273H175.908V42.4409H178.621C178.621 42.1918 178.571 41.9695 178.472 41.774C178.374 41.5786 178.234 41.4243 178.052 41.3112C177.872 41.1982 177.659 41.1417 177.414 41.1417C177.144 41.1417 176.91 41.2087 176.713 41.3429C176.517 41.4751 176.367 41.6476 176.261 41.8603C176.156 42.073 176.103 42.301 176.103 42.5444V42.9353C176.103 43.2687 176.161 43.5514 176.276 43.7833C176.393 44.0132 176.555 44.1886 176.762 44.3093C176.969 44.4281 177.209 44.4875 177.483 44.4875C177.661 44.4875 177.822 44.4626 177.966 44.4128C178.112 44.361 178.237 44.2844 178.342 44.1828C178.448 44.0793 178.529 43.9509 178.587 43.7976L179.242 43.9816C179.173 44.2039 179.057 44.3994 178.894 44.568C178.732 44.7347 178.53 44.865 178.291 44.9589C178.051 45.0509 177.782 45.0969 177.483 45.0969Z" fill="url(#paint25_linear_61_1399)"/>
<path d="M182.367 45.0049V40.5898H183.022V41.2566H183.068C183.149 41.0382 183.294 40.8609 183.505 40.7249C183.716 40.5888 183.953 40.5208 184.218 40.5208C184.268 40.5208 184.33 40.5217 184.405 40.5237C184.479 40.5256 184.536 40.5284 184.574 40.5323V41.2221C184.551 41.2164 184.499 41.2078 184.416 41.1963C184.336 41.1829 184.25 41.1761 184.16 41.1761C183.946 41.1761 183.754 41.2212 183.585 41.3112C183.419 41.3994 183.287 41.522 183.189 41.6792C183.093 41.8344 183.045 42.0117 183.045 42.2109V45.0049H182.367Z" fill="url(#paint26_linear_61_1399)"/>
<defs>
<linearGradient id="paint0_linear_61_1399" x1="46.3175" y1="35.0907" x2="9.63241" y2="35.7693" gradientUnits="userSpaceOnUse">
<stop stop-color="#CF9603"/>
<stop offset="0.5" stop-color="#EEDC9B"/>
<stop offset="1" stop-color="#CF9603"/>
</linearGradient>
<linearGradient id="paint1_linear_61_1399" x1="9.87495" y1="41.2922" x2="27.8162" y2="9.28648" gradientUnits="userSpaceOnUse">
<stop stop-color="#CF9603"/>
<stop offset="0.5" stop-color="#EEDC9B"/>
<stop offset="1" stop-color="#CF9603"/>
</linearGradient>
<linearGradient id="paint2_linear_61_1399" x1="22.8391" y1="6.19118" x2="42.3778" y2="37.2474" gradientUnits="userSpaceOnUse">
<stop stop-color="#CF9603"/>
<stop offset="0.5" stop-color="#EEDC9B"/>
<stop offset="1" stop-color="#CF9603"/>
</linearGradient>
<linearGradient id="paint3_linear_61_1399" x1="124.917" y1="12.6431" x2="124.917" y2="32.3549" gradientUnits="userSpaceOnUse">
<stop stop-color="#CF9603"/>
<stop offset="0.494792" stop-color="#EEDC9B"/>
<stop offset="0.989583" stop-color="#CF9603"/>
</linearGradient>
<linearGradient id="paint4_linear_61_1399" x1="124.917" y1="12.6431" x2="124.917" y2="32.3549" gradientUnits="userSpaceOnUse">
<stop stop-color="#CF9603"/>
<stop offset="0.494792" stop-color="#EEDC9B"/>
<stop offset="0.989583" stop-color="#CF9603"/>
</linearGradient>
<linearGradient id="paint5_linear_61_1399" x1="124.917" y1="12.6431" x2="124.917" y2="32.3549" gradientUnits="userSpaceOnUse">
<stop stop-color="#CF9603"/>
<stop offset="0.494792" stop-color="#EEDC9B"/>
<stop offset="0.989583" stop-color="#CF9603"/>
</linearGradient>
<linearGradient id="paint6_linear_61_1399" x1="124.917" y1="12.6431" x2="124.917" y2="32.3549" gradientUnits="userSpaceOnUse">
<stop stop-color="#CF9603"/>
<stop offset="0.494792" stop-color="#EEDC9B"/>
<stop offset="0.989583" stop-color="#CF9603"/>
</linearGradient>
<linearGradient id="paint7_linear_61_1399" x1="124.917" y1="12.6431" x2="124.917" y2="32.3549" gradientUnits="userSpaceOnUse">
<stop stop-color="#CF9603"/>
<stop offset="0.494792" stop-color="#EEDC9B"/>
<stop offset="0.989583" stop-color="#CF9603"/>
</linearGradient>
<linearGradient id="paint8_linear_61_1399" x1="124.917" y1="12.6431" x2="124.917" y2="32.3549" gradientUnits="userSpaceOnUse">
<stop stop-color="#CF9603"/>
<stop offset="0.494792" stop-color="#EEDC9B"/>
<stop offset="0.989583" stop-color="#CF9603"/>
</linearGradient>
<linearGradient id="paint9_linear_61_1399" x1="124.917" y1="12.6431" x2="124.917" y2="32.3549" gradientUnits="userSpaceOnUse">
<stop stop-color="#CF9603"/>
<stop offset="0.494792" stop-color="#EEDC9B"/>
<stop offset="0.989583" stop-color="#CF9603"/>
</linearGradient>
<linearGradient id="paint10_linear_61_1399" x1="125.059" y1="36.9105" x2="125.059" y2="46.6238" gradientUnits="userSpaceOnUse">
<stop stop-color="#CF9603"/>
<stop offset="0.494792" stop-color="#EEDC9B"/>
<stop offset="1" stop-color="#CF9603"/>
</linearGradient>
<linearGradient id="paint11_linear_61_1399" x1="125.059" y1="36.9105" x2="125.059" y2="46.6238" gradientUnits="userSpaceOnUse">
<stop stop-color="#CF9603"/>
<stop offset="0.494792" stop-color="#EEDC9B"/>
<stop offset="1" stop-color="#CF9603"/>
</linearGradient>
<linearGradient id="paint12_linear_61_1399" x1="125.059" y1="36.9105" x2="125.059" y2="46.6238" gradientUnits="userSpaceOnUse">
<stop stop-color="#CF9603"/>
<stop offset="0.494792" stop-color="#EEDC9B"/>
<stop offset="1" stop-color="#CF9603"/>
</linearGradient>
<linearGradient id="paint13_linear_61_1399" x1="125.059" y1="36.9105" x2="125.059" y2="46.6238" gradientUnits="userSpaceOnUse">
<stop stop-color="#CF9603"/>
<stop offset="0.494792" stop-color="#EEDC9B"/>
<stop offset="1" stop-color="#CF9603"/>
</linearGradient>
<linearGradient id="paint14_linear_61_1399" x1="125.059" y1="36.9105" x2="125.059" y2="46.6238" gradientUnits="userSpaceOnUse">
<stop stop-color="#CF9603"/>
<stop offset="0.494792" stop-color="#EEDC9B"/>
<stop offset="1" stop-color="#CF9603"/>
</linearGradient>
<linearGradient id="paint15_linear_61_1399" x1="125.059" y1="36.9105" x2="125.059" y2="46.6238" gradientUnits="userSpaceOnUse">
<stop stop-color="#CF9603"/>
<stop offset="0.494792" stop-color="#EEDC9B"/>
<stop offset="1" stop-color="#CF9603"/>
</linearGradient>
<linearGradient id="paint16_linear_61_1399" x1="125.059" y1="36.9105" x2="125.059" y2="46.6238" gradientUnits="userSpaceOnUse">
<stop stop-color="#CF9603"/>
<stop offset="0.494792" stop-color="#EEDC9B"/>
<stop offset="1" stop-color="#CF9603"/>
</linearGradient>
<linearGradient id="paint17_linear_61_1399" x1="125.059" y1="36.9105" x2="125.059" y2="46.6238" gradientUnits="userSpaceOnUse">
<stop stop-color="#CF9603"/>
<stop offset="0.494792" stop-color="#EEDC9B"/>
<stop offset="1" stop-color="#CF9603"/>
</linearGradient>
<linearGradient id="paint18_linear_61_1399" x1="125.059" y1="36.9105" x2="125.059" y2="46.6238" gradientUnits="userSpaceOnUse">
<stop stop-color="#CF9603"/>
<stop offset="0.494792" stop-color="#EEDC9B"/>
<stop offset="1" stop-color="#CF9603"/>
</linearGradient>
<linearGradient id="paint19_linear_61_1399" x1="125.059" y1="36.9105" x2="125.059" y2="46.6238" gradientUnits="userSpaceOnUse">
<stop stop-color="#CF9603"/>
<stop offset="0.494792" stop-color="#EEDC9B"/>
<stop offset="1" stop-color="#CF9603"/>
</linearGradient>
<linearGradient id="paint20_linear_61_1399" x1="125.059" y1="36.9105" x2="125.059" y2="46.6238" gradientUnits="userSpaceOnUse">
<stop stop-color="#CF9603"/>
<stop offset="0.494792" stop-color="#EEDC9B"/>
<stop offset="1" stop-color="#CF9603"/>
</linearGradient>
<linearGradient id="paint21_linear_61_1399" x1="125.059" y1="36.9105" x2="125.059" y2="46.6238" gradientUnits="userSpaceOnUse">
<stop stop-color="#CF9603"/>
<stop offset="0.494792" stop-color="#EEDC9B"/>
<stop offset="1" stop-color="#CF9603"/>
</linearGradient>
<linearGradient id="paint22_linear_61_1399" x1="125.059" y1="36.9105" x2="125.059" y2="46.6238" gradientUnits="userSpaceOnUse">
<stop stop-color="#CF9603"/>
<stop offset="0.494792" stop-color="#EEDC9B"/>
<stop offset="1" stop-color="#CF9603"/>
</linearGradient>
<linearGradient id="paint23_linear_61_1399" x1="125.059" y1="36.9105" x2="125.059" y2="46.6238" gradientUnits="userSpaceOnUse">
<stop stop-color="#CF9603"/>
<stop offset="0.494792" stop-color="#EEDC9B"/>
<stop offset="1" stop-color="#CF9603"/>
</linearGradient>
<linearGradient id="paint24_linear_61_1399" x1="125.059" y1="36.9105" x2="125.059" y2="46.6238" gradientUnits="userSpaceOnUse">
<stop stop-color="#CF9603"/>
<stop offset="0.494792" stop-color="#EEDC9B"/>
<stop offset="1" stop-color="#CF9603"/>
</linearGradient>
<linearGradient id="paint25_linear_61_1399" x1="125.059" y1="36.9105" x2="125.059" y2="46.6238" gradientUnits="userSpaceOnUse">
<stop stop-color="#CF9603"/>
<stop offset="0.494792" stop-color="#EEDC9B"/>
<stop offset="1" stop-color="#CF9603"/>
</linearGradient>
<linearGradient id="paint26_linear_61_1399" x1="125.059" y1="36.9105" x2="125.059" y2="46.6238" gradientUnits="userSpaceOnUse">
<stop stop-color="#CF9603"/>
<stop offset="0.494792" stop-color="#EEDC9B"/>
<stop offset="1" stop-color="#CF9603"/>
</linearGradient>
</defs>
</svg>
